<?xml version="1.0" encoding="utf-8"?>
<!-- Generator: Adobe Illustrator 15.1.0, SVG Export Plug-In . SVG Version: 6.00 Build 0)  -->
<!DOCTYPE svg PUBLIC "-//W3C//DTD SVG 1.1//EN" "http://www.w3.org/Graphics/SVG/1.1/DTD/svg11.dtd">
<svg version="1.1" id="Layer_1" xmlns="http://www.w3.org/2000/svg" xmlns:xlink="http://www.w3.org/1999/xlink" x="0px" y="0px"
	 width="16px" height="16px" viewBox="0 0 16 16" xml:space="preserve">
<path fill="#8FB28F" d="M10.584,6.111L9.89,5.417L8.5,4.028L7.807,4.722c-0.695,0.694-0.695,0.694-2.778,1.39
	c-2.776,2.776-2.776,5.553-2.776,5.553l-0.695,0.693c0,0-0.693,0.695,0,1.39l4.166-4.166l0.07-0.051
	C5.526,8.982,5.615,8.303,6.072,7.847c0.574-0.575,1.507-0.575,2.083-0.002C8.729,8.42,8.729,9.354,8.154,9.93
	c-0.457,0.455-1.136,0.543-1.686,0.275l-0.051,0.071l-4.165,4.165c0.694,0.694,1.388,0,1.388,0l0.693-0.693c0,0,2.778,0,5.555-2.778
	c0.694-2.082,0.694-2.082,1.389-2.777l0.694-0.694L10.584,6.111z"/>
<path fill="#8FB28F" d="M11.278,1.25l3.472,3.471l-2.083,2.084L9.195,3.334L11.278,1.25z"/>
</svg>
