<svg xmlns="http://www.w3.org/2000/svg" xmlns:xlink="http://www.w3.org/1999/xlink" viewBox="0 0 42 42"><defs><path id="a" d="M0 39V.167h38.833V39z"/></defs><g fill="none" fill-rule="evenodd"><path fill="#0073AE" d="M25.125 19.384c-.051.533-.852.936-1.618.933-.895-.003-3.577 0-3.577 0l.409-3.482s2.484-.067 3.559 0c.8.05 1.214.534 1.277.917.067.403.033.764-.05 1.632m5.79-3.132c0-2.998-3.3-3.461-4.802-3.565-2.77-.191-11.106 0-11.106 0l-3.1 17.545h5.938c0-.803 1.218-5.996 1.218-5.996l3.742.204c1.08.085.87 1.87.84 2.986-.03 1.024-.26 2.806-.26 2.806h5.964v-.453s-.821.01-.528-1.116c.342-1.316.545-2.832.51-4.564-.033-1.733-2.026-2.1-2.026-2.1 3.185-.732 3.528-2.87 3.61-4.247.023-.374 0-1.5 0-1.5"/><g transform="translate(2 1.833)"><mask id="b" fill="#fff"><use xlink:href="#a"/></mask><path fill="#E3811D" d="M19.417 33.86c-7.885 0-14.277-6.392-14.277-14.277 0-7.885 6.392-14.277 14.277-14.277 7.885 0 14.277 6.392 14.277 14.277 0 7.885-6.392 14.277-14.277 14.277m0-33.694C8.693.166 0 8.86 0 19.583S8.693 39 19.417 39c10.723 0 19.417-8.694 19.417-19.417S30.14.166 19.417.166" mask="url(#b)"/></g></g></svg>