<?xml version="1.0" ?><!DOCTYPE svg  PUBLIC '-//W3C//DTD SVG 1.1//EN'  'http://www.w3.org/Graphics/SVG/1.1/DTD/svg11.dtd'><svg height="2048px" style="shape-rendering:geometricPrecision; text-rendering:geometricPrecision; image-rendering:optimizeQuality; fill-rule:evenodd; clip-rule:evenodd" viewBox="0 0 2048 2048" width="2048px" xml:space="preserve" xmlns="http://www.w3.org/2000/svg" xmlns:xlink="http://www.w3.org/1999/xlink"><defs><style type="text/css">
   <![CDATA[
    .fil1 {fill:none}
    .fil0 {fill:#ffffff}
   ]]>
  </style></defs><g id="Layer_x0020_1"><path class="fil0" d="M1776 1024c0,-207.665 -84.1678,-395.667 -220.251,-531.749 -136.082,-136.083 -324.084,-220.251 -531.749,-220.251 -207.665,0 -395.667,84.1678 -531.749,220.251 -136.083,136.082 -220.251,324.084 -220.251,531.749 0,207.665 84.1678,395.667 220.251,531.749 136.082,136.083 324.084,220.251 531.749,220.251 207.665,0 395.667,-84.1678 531.749,-220.251 136.083,-136.082 220.251,-324.084 220.251,-531.749zm-447.87 -431.15l0 0zm19.024 649.665l0 0zm0.399213 3.09095l0 0zm-514.718 -76.3548l0 -478.379 0 -13.4764 13.3134 -2.27362 481.979 -82.2839 0.459449 -0.0921261 19.1256 -3.83386 0 19.5213 0 2.08229 -0.0625985 0 -0.641339 631.114 0.154725 0.883465c0.19252,1.20236 0.323622,2.2252 0.394488,3.09213 2.97402,39.5859 -10.3642,77.3552 -34.3524,106.453 -23.9906,29.1 -58.6371,49.552 -98.2725,54.4996 -2.22992,0.277559 -4.62402,0.51378 -7.16812,0.705119 -37.1859,2.80512 -71.8619,-8.8382 -98.4343,-30.417 -26.5996,-21.6 -45,-53.1059 -49.6052,-89.9859 -0.26811,-2.15551 -0.500788,-4.50237 -0.690945,-7.03583 -3.02244,-39.5185 10.3417,-77.3079 34.3536,-106.428 24.0166,-29.1236 58.6914,-49.604 98.2772,-54.4973 12.2102,-1.52599 24.3425,-1.45158 36.1866,0.0720473 4.29922,0.552756 8.54292,1.30276 12.7205,2.24173l0 -306.415 -300.505 55.9276 -0.152362 205.586c-0.0153543,24.587 -0.0318898,49.1126 -0.0318898,218.192 2.76614,39.2233 -10.5307,76.6253 -34.3181,105.503 -23.9835,29.1154 -58.643,49.5839 -98.2501,54.5292 -2.11772,0.261024 -4.41142,0.486615 -6.86575,0.67441 -37.3406,2.85827 -72.117,-8.81103 -98.7438,-30.4488 -26.6622,-21.6662 -45.0685,-53.263 -49.6311,-90.2257 -0.251575,-2.04567 -0.473622,-4.28977 -0.659056,-6.7252 -3.07205,-39.5599 10.2366,-77.3493 34.2272,-106.468 23.987,-29.1142 58.6583,-49.5709 98.3056,-54.4642 12.2209,-1.52126 24.3484,-1.42677 36.1725,0.113386 4.29922,0.559843 8.54056,1.31457 12.7146,2.25827z"/></g><rect class="fil1" height="2048" width="2048"/></svg>
