<?xml version="1.0" encoding="UTF-8" standalone="no"?>
<svg width="60.625" height="21" xmlns="http://www.w3.org/2000/svg">
 <metadata id="metadata3039">image/svg+xml</metadata>
 <g>
  <title>Layer 1</title>
  <path id="svg_1" fill="#076d7f" d="m6.0625,0l6.0622,10.5l-12.12438,0l6.06218,-10.5l1.2376,0l-1.2376,0l1.62436,0l-1.62436,0z"/>
  <path id="svg_2" fill="#074b50" d="m6.06218,21l6.06222,-10.5l-12.12442,0l6.06217,10.5l0.00003,0z"/>
  <path id="svg_3" fill="#00595f" d="m12.12319,10.49851l6.0622,10.5l-12.12438,0l6.06218,-10.5l1.2376,0l-1.2376,0l1.62436,0l-1.62436,0z"/>
  <path id="svg_4" fill="#066070" d="m12.12319,10.49851l6.06222,-10.5l-12.12442,0l6.06217,10.5l0.00003,0z"/>
  <path id="svg_5" fill="#248f93" d="m18.18601,-0.00149l6.0622,10.5l-12.12438,0l6.06218,-10.5l1.2376,0l-1.2376,0l1.62436,0l-1.62436,0z"/>
  <path id="svg_6" fill="#097981" d="m18.18811,21.00093l6.06222,-10.5l-12.12442,0l6.06217,10.5l0.00003,0z"/>
  <path id="svg_7" fill="#097c83" d="m24.24912,10.49944l6.06222,-10.5l-12.12442,0l6.06217,10.5l0.00003,0z"/>
  <path id="svg_8" fill="#00595f" d="m24.25093,10.50093l6.0622,10.5l-12.12438,0l6.06218,-10.5l1.2376,0l-1.2376,0l1.62436,0l-1.62436,0z"/>
  <path id="svg_9" fill="#076d7f" d="m30.31194,-0.00056l6.0622,10.5l-12.12438,0l6.06218,-10.5l1.2376,0l-1.2376,0l1.62436,0l-1.62436,0z"/>
  <path id="svg_10" fill="#074b50" d="m30.31404,21.00186l6.06222,-10.5l-12.12442,0l6.06217,10.5l0.00003,0z"/>
  <path id="svg_11" fill="#066070" d="m36.37304,10.49836l6.06222,-10.5l-12.12442,0l6.06217,10.5l0.00003,0z"/>
  <path id="svg_12" fill="#00595f" d="m36.37485,10.49985l6.0622,10.5l-12.12438,0l6.06218,-10.5l1.2376,0l-1.2376,0l1.62436,0l-1.62436,0z"/>
  <path id="svg_13" fill="#248f93" d="m42.43775,0.00025l6.0622,10.5l-12.12438,0l6.06218,-10.5l1.2376,0l-1.2376,0l1.62436,0l-1.62436,0z"/>
  <path id="svg_14" fill="#097981" d="m42.43594,20.99876l6.06222,-10.5l-12.12442,0l6.06217,10.5l0.00003,0z"/>
  <path id="svg_15" fill="#097c83" d="m48.49885,10.49917l6.06222,-10.5l-12.12442,0l6.06217,10.5l0.00003,0z"/>
  <path id="svg_16" fill="#00595f" d="m48.50066,10.50066l6.0622,10.5l-12.12438,0l6.06218,-10.5l1.2376,0l-1.2376,0l1.62436,0l-1.62436,0z"/>
  <path id="svg_17" fill="#076d7f" d="m54.56356,0.00106l6.0622,10.5l-12.12438,0l6.06218,-10.5l1.2376,0l-1.2376,0l1.62436,0l-1.62436,0z"/>
  <path id="svg_18" fill="#074b50" d="m54.56175,20.99957l6.06222,-10.5l-12.12442,0l6.06217,10.5l0.00003,0z"/>
 </g>
</svg>
