<?xml version="1.0" encoding="UTF-8" standalone="no"?>
<svg width="30.3175" height="21" xmlns="http://www.w3.org/2000/svg">
 <metadata id="metadata3039">image/svg+xml</metadata>
 <g>
  <title>Layer 1</title>
  <path id="svg_9" fill="#076d7f" d="m0,0 l6.0625,10.5 l-6.0625,0 l0,-10.5 z"/>
  <path id="svg_10" fill="#074b50" d="m0,10.5 l6.0625,0 l-6.0625,10.5 l0,-10.5 z"/>
  <path id="svg_11" fill="#066070" d="m0,0 l12.125,0 l-6.0625,10.5 l-6.0625,-10.5 z"/>
  <path id="svg_12" fill="#00595f" d="m0,21 l6.0625,-10.5 l6.0625,10.5 l-12.125,0 z"/>
  <path id="svg_13" fill="#248f93" d="m6.0625,10.5 l6.0625,-10.5 l6.0625,10.5 l-12.125,0 z"/>
  <path id="svg_14" fill="#097981" d="m6.0625,10.5 l12.125,0 l-6.0625,10.5 l-6.0625,-10.5 z"/>
  <path id="svg_15" fill="#097c83" d="m12.125,0 l12.125,0 l-6.0625,10.5 l-6.0625,-10.5 z"/>
  <path id="svg_16" fill="#00595f" d="m12.125,21 l6.0625,-10.5 l6.0625,10.5 l-12.125,0 z"/>
  <path id="svg_17" fill="#076d7f" d="m18.1875,10.5 l6.0625,-10.5 l6.0625,10.5 l-12.125,0 z"/>
  <path id="svg_18" fill="#074b50" d="m18.1875,10.5 l12.125,0 l-6.0625,10.5 l-6.0625,-10.5 z"/>
 </g>
</svg>
