<?xml version="1.0" encoding="UTF-8" standalone="no"?>
<svg width="36.3175" height="21" xmlns="http://www.w3.org/2000/svg">
 <metadata id="metadata3039">image/svg+xml</metadata>
 <g transform="translate(4 0)">
  <title>Layer 1</title>
  <path id="svg_1" fill="#076d7f" d="m2,10.5 l6.0625,-10.5 l6.0625,10.5 l-12.125,0 z"/>
  <path id="svg_2" fill="#074b50" d="m2,10.5 l6.0625,10.5 l6.0625,-10.5 l-12.125,0 z"/>
  <path id="svg_3" fill="#00595f" d="m8.0625,0 l12.125,0 l-6.0625,10.5 l-6.0625,-10.5 z"/>
  <path id="svg_4" fill="#066070" d="m8.0625,21 l6.0625,-10.5 l6.0625,10.5 l-12.125,0 z"/>
  <path id="svg_5" fill="#248f93" d="m14.125,10.5 l6.0625,-10.5 l6.0625,10.5 l-12.125,0 z"/>
  <path id="svg_6" fill="#097981" d="m14.125,10.5 l12.125,0 l-6.0625,10.5 l-6.0625,-10.5 z"/>
  <path id="svg_7" fill="#097c83" d="m20.1875,0 l12.125,0 l-6.0625,10.5 l-6.0625,-10.5 z"/>
  <path id="svg_8" fill="#00595f" d="m20.1875,21 l6.0625,-10.5 l6.0625,10.5 l-12.125,0 z"/>
  <path id="svg_9" fill="#076d7f" d="m26.25,10.5 l6.0625,-10.5 l0,10.5 l-6.0625,0 z"/>
  <path id="svg_10" fill="#074b50" d="m26.25,10.5 l6.0625,0 l0,10.5 l-6.0625,-10.5 z"/>
 </g>
</svg>
