<?xml version="1.0" encoding="iso-8859-1"?>
<!-- Generator: Adobe Illustrator 17.0.0, SVG Export Plug-In . SVG Version: 6.00 Build 0)  -->
<!DOCTYPE svg PUBLIC "-//W3C//DTD SVG 1.1//EN" "http://www.w3.org/Graphics/SVG/1.1/DTD/svg11.dtd">
<svg version="1.1" id="Capa_1" xmlns="http://www.w3.org/2000/svg" xmlns:xlink="http://www.w3.org/1999/xlink" x="0px" y="0px"
	 width="16px" height="17px" viewBox="0 0 64 64" style="enable-background:new 0 0 64 64;" xml:space="preserve">
<path d="M51.427,26.875l-2.532-0.362c-0.289-0.886-0.648-1.747-1.07-2.57c0,0,0.689-0.918,1.538-2.05
	c0.85-1.132,0.823-3.194-0.251-4.455c-0.781-0.915-1.634-1.768-2.551-2.548c-1.262-1.074-3.323-1.1-4.453-0.251l-2.048,1.538
	c-0.823-0.417-1.681-0.777-2.574-1.07c0,0-0.16-1.134-0.357-2.532c-0.197-1.399-1.409-2.773-2.729-2.914
	c-0.789-0.085-1.589-0.129-2.399-0.129c-0.811,0-1.61,0.044-2.397,0.128c-1.319,0.142-2.532,1.516-2.731,2.915l-0.359,2.532
	c-0.891,0.293-1.748,0.653-2.578,1.07c0,0-0.915-0.688-2.045-1.538c-1.129-0.849-3.188-0.822-4.45,0.251
	c-0.917,0.78-1.77,1.633-2.55,2.548c-1.075,1.261-1.101,3.323-0.252,4.455l1.536,2.05c-0.424,0.823-0.777,1.685-1.068,2.57
	c0,0-1.134,0.162-2.531,0.362c-1.397,0.199-2.774,1.409-2.915,2.727C9.573,30.39,9.53,31.19,9.53,31.996
	c0,0.813,0.043,1.612,0.127,2.399c0.141,1.32,1.519,2.534,2.916,2.733l2.531,0.361c0.291,0.893,0.645,1.746,1.068,2.576
	c0,0-0.688,0.916-1.536,2.047c-0.849,1.13-0.823,3.19,0.251,4.452c0.78,0.916,1.633,1.769,2.55,2.549
	c1.262,1.073,3.322,1.098,4.451,0.247l2.045-1.538c0.83,0.421,1.688,0.779,2.578,1.072c0,0,0.161,1.134,0.359,2.532
	c0.198,1.397,1.411,2.777,2.731,2.917c0.787,0.083,1.587,0.124,2.397,0.124c0.811,0,1.61-0.041,2.399-0.125
	c1.32-0.139,2.532-1.519,2.729-2.916l0.357-2.532c0.894-0.293,1.751-0.651,2.574-1.072c0,0,0.917,0.688,2.048,1.538
	c1.13,0.851,3.192,0.827,4.454-0.246c0.917-0.781,1.77-1.634,2.55-2.55c1.074-1.262,1.101-3.322,0.251-4.452l-1.538-2.047
	c0.422-0.83,0.781-1.684,1.07-2.576c0,0,1.134-0.162,2.532-0.361c1.398-0.199,2.775-1.413,2.916-2.733
	c0.083-0.787,0.126-1.587,0.126-2.399c0-0.807-0.043-1.605-0.127-2.394C54.201,28.286,52.825,27.074,51.427,26.875z M32,42
	c-5.523,0-10-4.478-10-10s4.477-10,10-10c5.522,0,10,4.478,10,10S37.522,42,32,42z" fill="grey"/>
</svg>
