<?xml version="1.0" encoding="UTF-8" standalone="no"?>

<svg
   xmlns:dc="http://purl.org/dc/elements/1.1/"
   xmlns:cc="http://creativecommons.org/ns#"
   xmlns:rdf="http://www.w3.org/1999/02/22-rdf-syntax-ns#"
   xmlns:svg="http://www.w3.org/2000/svg"
   xmlns="http://www.w3.org/2000/svg"
   width="16px"
   height="17px"
   version="1.1"
   viewbox="0 0 166.75259 113.94053">
  <g
      transform="translate(-9, -2) scale(0.07, 0.07)"
      fill="#00ffff">
    <g>
      <path
         id="path2426"
         d="m 349.04829,213.25522 c 0,18.25189 -26.25845,19.11077 -26.25845,1 l 0.5,-46.81607 c 0,-16.25658 17.11988,-33.9858 40.36972,-34.25 17.25743,0 17.79396,-26.79433 0,-26.79433 l -131.20237,0 c -12.92263,0 -18.70236,7.625 -18.45236,17.125 l 0,77.65638 c 0,18.27957 -26.25845,18.00174 -26.25845,0 0,0 -0.5,-59.1601 -0.5,-79.14749 0,-19.48739 15.34761,-43.000001 44.4094,-43.000001 29.56172,0 131.4094,0 131.4094,0 25.5,0.25 38.75,19.768996 38.5,38.781221 -0.0883,26.25461 -20.22637,42.03122 -35.75,42.03122 -11.52842,0 -16.40924,6.4732 -16.40924,17.25 l -0.35765,36.16407 z"/>
      <path
         id="path2424"
         d="m 146.43482,120.57408 -0.22586,91.86364 c 1.36668,25.83027 19.74304,40.57597 39.77414,41.07595 l 85.3378,-0.82177 c 20.29248,0 36.73205,-16.86411 36.73205,-39.11973 0,-20.76355 -13.62805,-38.40945 -39.38767,-39.11974 -18.75482,0 -18.50169,-26.79433 0,-26.79433 l 38.65682,0 c 17.58241,0 17.13935,-27.86611 0,-27.86611 l -41.24187,0.5 c -20.28043,0 -38.7149,17.11535 -38.5,39.24067 0.2149,22.12532 15.40551,41.32322 39.30061,41.32322 18.58623,0 18.17852,26.64934 0.17678,26.64934 l -75.7991,0 c -10.25934,0 -17.98108,-5.58364 -17.98108,-18.12132 l -0.5,-88.59492 c 0,-19.8673 -26.34262,-19.55711 -26.34262,-0.2149 z"/>
    </g>
  </g>
</svg>
