<svg height="17px" width="16px" xmlns="http://www.w3.org/2000/svg" viewBox="0 0 857.143 1000"><path d="M499.968 767.872v-107.136q0 -7.812 -5.022 -12.834t-12.834 -5.022h-107.136q-7.812 0 -12.834 5.022t-5.022 12.834v107.136q0 7.812 5.022 12.834t12.834 5.022h107.136q7.812 0 12.834 -5.022t5.022 -12.834zm142.848 -374.976q0 -49.104 -30.969 -90.954t-77.283 -64.728 -94.86 -22.878q-135.594 0 -207.018 118.854 -8.37 13.392 4.464 23.436l73.656 55.8q3.906 3.348 10.602 3.348 8.928 0 13.95 -6.696 29.574 -37.944 47.988 -51.336 18.972 -13.392 47.988 -13.392 26.784 0 47.709 14.508t20.925 32.922q0 21.204 -11.16 34.038t-37.944 25.11q-35.154 15.624 -64.449 48.267t-29.295 70.029v20.088q0 7.812 5.022 12.834t12.834 5.022h107.136q7.812 0 12.834 -5.022t5.022 -12.834q0 -10.602 11.997 -27.621t30.411 -27.621q17.856 -10.044 27.342 -15.903t25.668 -19.53 24.831 -26.784 15.624 -33.759 6.975 -45.198zm214.272 107.136q0 116.622 -57.474 215.109t-155.961 155.961 -215.109 57.474 -215.109 -57.474 -155.961 -155.961 -57.474 -215.109 57.474 -215.109 155.961 -155.961 215.109 -57.474 215.109 57.474 155.961 155.961 57.474 215.109z" fill="white"/></svg>
