<?xml version="1.0" encoding="UTF-8"?><!DOCTYPE svg PUBLIC "-//W3C//DTD SVG 1.1//EN" "http://www.w3.org/Graphics/SVG/1.1/DTD/svg11.dtd"><svg version="1.1" xmlns="http://www.w3.org/2000/svg" xmlns:xlink="http://www.w3.org/1999/xlink" x="0" y="0" width="16px" height="17px" viewBox="0, 0, 128, 128">
<g transform="translate(-60, -50) scale(1.8, 1.8)">
  <path d="M60.938,40.538 L60.938,48.546 L59.84,48.546 Q58.302,48.546 57.533,49.193 Q56.764,49.84 56.446,51.183 Q56.275,51.915 56.251,55.199 Q56.227,58.482 55.567,60.362 Q55.079,61.803 54.176,62.682 Q53.492,63.341 51.93,64.024 Q53.565,64.781 54.359,65.599 Q55.152,66.417 55.714,68.089 Q56.275,69.762 56.275,73.424 Q56.275,76.72 56.617,77.721 Q56.959,78.722 57.752,79.137 Q58.546,79.552 60.938,79.552 L60.938,87.462 L57.862,87.462 Q53.102,87.462 51.1,86.424 Q49.098,85.387 48.243,83.397 Q47.389,81.407 47.389,77.428 Q47.389,76.549 47.438,75.67 Q47.462,75.133 47.462,74.571 Q47.462,71.739 46.949,70.543 Q46.437,69.347 45.472,68.81 Q44.508,68.272 42.677,68.224 L42.677,59.85 Q44.557,59.85 45.497,59.264 Q46.437,58.678 46.925,57.469 Q47.413,56.261 47.413,53.38 L47.413,52.55 Q47.389,51.988 47.389,51.427 Q47.389,47.105 48.109,45.177 Q48.829,43.248 50.099,42.223 Q51.051,41.441 52.687,41.051 Q54.859,40.538 57.643,40.538 z M67.062,40.538 L67.062,48.546 L68.16,48.546 Q69.698,48.546 70.467,49.193 Q71.236,49.84 71.554,51.183 Q71.725,51.915 71.749,55.199 Q71.773,58.482 72.433,60.362 Q72.921,61.803 73.824,62.682 Q74.508,63.341 76.07,64.024 Q74.435,64.781 73.641,65.599 Q72.848,66.417 72.286,68.089 Q71.725,69.762 71.725,73.424 Q71.725,76.72 71.383,77.721 Q71.041,78.722 70.248,79.137 Q69.454,79.552 67.062,79.552 L67.062,87.462 L70.138,87.462 Q74.898,87.462 76.9,86.424 Q78.902,85.387 79.757,83.397 Q80.611,81.407 80.611,77.428 Q80.611,76.549 80.562,75.67 Q80.538,75.133 80.538,74.571 Q80.538,71.739 81.051,70.543 Q81.563,69.347 82.528,68.81 Q83.492,68.272 85.323,68.224 L85.323,59.85 Q83.443,59.85 82.503,59.264 Q81.563,58.678 81.075,57.469 Q80.587,56.261 80.587,53.38 L80.587,52.55 Q80.611,51.988 80.611,51.427 Q80.611,47.105 79.891,45.177 Q79.171,43.248 77.901,42.223 Q76.949,41.441 75.313,41.051 Q73.141,40.538 70.357,40.538 z" fill="#ffdd00"/>
</g>
</svg>
