<?xml version="1.0" encoding="UTF-8" standalone="no"?>
<svg width="16px" height="17px" viewBox="0 0 53 54" version="1.1" xmlns="http://www.w3.org/2000/svg" xmlns:xlink="http://www.w3.org/1999/xlink">
    <g stroke="none" stroke-width="1" fill="none" fill-rule="evenodd">
	<g transform="translate(-207.000000, -2185.000000)" fill="#FFF">
	    <g transform="translate(207.000000, 2185.000000)">
		<path d="M49.029,54 L5.636,54 C4.108,54 3,52.512 3,50.461 L3,49 L6,49 L6,50.461 C6,50.682 6.034,50.867 6.072,51 L49.029,51 C49.905,51 50,49.842 50,49.344 L50,6.231 C50,6.143 49.998,6.066 49.996,6 L48,6 L48,3 L50.448,3 C51.401,3 53,3.42 53,6.231 L53,49.344 C53,52.085 51.367,54 49.029,54"></path>
		<path d="M45.827,50 L3.173,50 C1.423,50 0,48.577 0,46.827 L0,3.173 C0,1.423 1.423,0 3.173,0 L45.827,0 C47.577,0 49,1.423 49,3.173 L49,46.827 C49,48.577 47.577,50 45.827,50 L45.827,50 Z M3.173,3 C3.077,3 3,3.078 3,3.173 L3,46.827 C3,46.922 3.077,47 3.173,47 L45.827,47 C45.923,47 46,46.922 46,46.827 L46,3.173 C46,3.078 45.923,3 45.827,3 L3.173,3 L3.173,3 Z"></path>
		<path d="M14.07,37.743 C14.07,39.676 12.503,41.243 10.57,41.243 C8.637,41.243 7.07,39.676 7.07,37.743 C7.07,35.81 8.637,34.243 10.57,34.243 C12.503,34.243 14.07,35.81 14.07,37.743"></path>
		<path d="M14.07,23.868 C14.07,25.801 12.503,27.368 10.57,27.368 C8.637,27.368 7.07,25.801 7.07,23.868 C7.07,21.935 8.637,20.368 10.57,20.368 C12.503,20.368 14.07,21.935 14.07,23.868"></path>
		<path d="M14.07,9.868 C14.07,11.801 12.503,13.368 10.57,13.368 C8.637,13.368 7.07,11.801 7.07,9.868 C7.07,7.935 8.637,6.368 10.57,6.368 C12.503,6.368 14.07,7.935 14.07,9.868"></path>
		<path d="M9,11 L12,11 L12,48 L9,48 L9,11 Z"></path>
		<path d="M18,8 L40,8 L40,11 L18,11 L18,8 Z"></path>
		<path d="M18,13 L29,13 L29,16 L18,16 L18,13 Z"></path>
		<path d="M18,27 L29,27 L29,30 L18,30 L18,27 Z"></path>
		<path d="M18,41 L29,41 L29,44 L18,44 L18,41 Z"></path>
		<path d="M18,22 L40,22 L40,25 L18,25 L18,22 Z"></path>
		<path d="M18,36 L40,36 L40,39 L18,39 L18,36 Z"></path>
	    </g>
	</g>
    </g>
</svg>
