<?xml version="1.0" encoding="UTF-8"?>
<svg xmlns="http://www.w3.org/2000/svg" height="16" width="12.571424"><path fill="%s" d="M7.27632 7.6701760000000005q0.071424 0.5624640000000001 -0.450864 0.901728t-0.995472 0.053568q-0.348192 -0.15177600000000002 -0.477648 -0.517824t-0.004464 -0.732096 0.46425599999999995 -0.517824q0.321408 -0.160704 0.64728 -0.107136t0.571392 0.316944 0.24552000000000002 0.60264zm0.991008 -0.187488q-0.124992 -0.955296 -1.008864 -1.464192t-1.758816 -0.11606399999999999q-0.5624640000000001 0.249984 -0.8972640000000001 0.790128t-0.308016 1.1561759999999999q0.035712 0.812448 0.69192 1.38384t1.477584 0.499968q0.812448 -0.071424 1.357056 -0.749952t0.44639999999999996 -1.499904zm2.133792 -4.838976q-0.17856 -0.24105600000000002 -0.499968 -0.397296t-0.517824 -0.196416 -0.633888 -0.11159999999999999q-2.598048 -0.419616 -5.053248 0.017856 -0.383904 0.062496 -0.589248 0.107136t-0.49104000000000003 0.196416 -0.44639999999999996 0.383904q0.26783999999999997 0.249984 0.678528 0.406224t0.656208 0.196416 0.7812 0.102672q2.035584 0.258912 3.999744 0.008928 0.5624640000000001 -0.071424 0.799056 -0.107136t0.64728 -0.191952 0.6696 -0.41515199999999997zm0.508896 9.24048q-0.071424 0.23212799999999997 -0.13838399999999998 0.6829919999999999t-0.124992 0.749952 -0.254448 0.6249600000000001 -0.517824 0.504432q-0.767808 0.428544 -1.691856 0.638352t-1.803456 0.196416 -1.798992 -0.165168q-0.410688 -0.071424 -0.727632 -0.160704t-0.6829919999999999 -0.24105600000000002 -0.651744 -0.388368 -0.46425599999999995 -0.549072q-0.22319999999999998 -0.857088 -0.508896 -2.606976l0.053568 -0.142848 0.160704 -0.080352q1.990944 1.321344 4.522032 1.321344t4.53096 -1.321344q0.187488 0.053568 0.214272 0.205344t-0.04464 0.40176 -0.071424 0.330336zm1.615968 -8.579808000000002q-0.23212799999999997 1.490976 -0.991008 5.84784 -0.04464 0.26783999999999997 -0.24105600000000002 0.499968t-0.388368 0.35712 -0.486576 0.27676799999999996q-2.2498560000000003 1.1249280000000002 -5.44608 0.785664 -2.2141439999999997 -0.24105600000000002 -3.517632 -1.2409919999999999 -0.13391999999999998 -0.107136 -0.22766399999999998 -0.23659200000000002t-0.15177600000000002 -0.31248000000000004 -0.080352 -0.30355200000000004 -0.053568 -0.352656 -0.049104 -0.31248000000000004q-0.080352 -0.44639999999999996 -0.23659200000000002 -1.3392t-0.249984 -1.441872 -0.209808 -1.31688 -0.196416 -1.410624q0.026784 -0.23212799999999997 0.15624000000000002 -0.433008t0.28123200000000004 -0.3348 0.40176 -0.26783999999999997 0.410688 -0.20088 0.428544 -0.165168q1.116 -0.410688 2.794464 -0.571392 3.383712 -0.330336 6.035328000000001 0.44639999999999996 1.38384 0.410688 1.91952 1.089216 0.142848 0.17856 0.147312 0.45532799999999995t-0.049104 0.48211200000000004z"/></svg>
