<svg xmlns="http://www.w3.org/2000/svg" width="16px" height="17px" viewBox="0, 0, 192, 192">
  <path d="M44 8h66l50 50v114c0 3.314-1.343 6.314-3.515 8.485-2.17 2.172-5.17 3.515-8.485 3.515H44c-3.314 0-6.314-1.343-8.485-3.515C33.343 178.315 32 175.315 32 172V20c0-3.314 1.343-6.314 3.515-8.485C37.685 9.343 40.685 8 44 8z" fill="#F54337"/>
  <path d="M110 8l50 50h-38c-6.627 0-12-5.373-12-12V8z" fill="#F6695E"/>
  <text transform="translate(96 108)">
  <tspan x="-56" y="9" font-family="Helvetica-Bold" font-size="56" fill="#FFF">PDF</tspan></text>
</svg>
