<?xml version="1.0" encoding="utf-8"?>
<!-- Generator: Adobe Illustrator 16.0.0, SVG Export Plug-In . SVG Version: 6.00 Build 0)  -->
<!DOCTYPE svg PUBLIC "-//W3C//DTD SVG 1.1//EN" "http://www.w3.org/Graphics/SVG/1.1/DTD/svg11.dtd">
<svg version="1.1" id="Untitled-Page_x25_201" xmlns="http://www.w3.org/2000/svg" xmlns:xlink="http://www.w3.org/1999/xlink"
	 x="0px" y="0px" width="16px" height="17px" viewBox="0 0 100 100" enable-background="new 0 0 100 100" xml:space="preserve">
  <g transform="scale(2, 2) translate(-25 -25)">
    <path class="svg-color" fill="#D8262C" d="M50.469,36.019h15.457l-4.621,11.08L50.469,36.019z"/>
    <path class="svg-color" fill="#D8262C" d="M34.134,36.019h16.335l-11.773,11.08L34.134,36.019z"/>
    <path class="svg-color" fill="#D8262C" d="M61.364,48.116l13.807-0.156l-25.076,22.2L61.364,48.116z"/>
    <path class="svg-color" fill="#D8262C" d="M24.979,48.089h13.698L50.644,70.16L24.979,48.089z"/>
    <path class="svg-stroke" fill="none" stroke="#D8262C" stroke-miterlimit="10"
	  d="M65.699,36.019l8.769,11.227l-24.12,22.356L25.549,47.245
	     l8.768-11.227H65.699z M65.562,35.15c0.278,0.069,0.547,0,0.687,0.209c3.049,3.763,6.108,7.897,9.097,11.869
	     c0.069,0,0.069,0.129,0.069,0.27c0,0.208,0,0.278-0.069,0.338c-3.806,3.563-7.742,6.986-11.547,10.54
	     c-0.748,0.687-1.426,1.374-2.173,2.059c-3.598,3.347-7.272,6.7-10.939,9.984c-0.069,0.069-0.2,0.139-0.338,0.139
	     c-0.479,0-4.214-3.554-4.753-4.041l-3.537-3.145c-0.947-0.816-1.963-1.78-2.989-2.667c-0.816-0.756-1.694-1.434-2.44-2.189
	     c-3.946-3.494-8.021-7.047-11.957-10.608c-0.139-0.131-0.07-0.201-0.07-0.409c0-0.687,1.634-2.46,1.904-2.737
	     c2.44-3.077,4.891-6.535,7.333-9.542c0.07-0.138,0.34-0.069,0.479-0.069H65.562z"/>
    <path class="svg-color" fill="#D8262C" d="M25.138,46.446h49.419v1.737H25.138V46.446z"/>
  </g>
</svg>
