<?xml version="1.0" encoding="UTF-8"?>
<!DOCTYPE svg PUBLIC "-//W3C//DTD SVG 1.1//EN" "http://www.w3.org/Graphics/SVG/1.1/DTD/svg11.dtd">
<svg xmlns="http://www.w3.org/2000/svg" xmlns:xlink="http://www.w3.org/1999/xlink" xmlns:svg="http://www.w3.org/2000/svg" xmlns:dc="http://purl.org/dc/elements/1.1/" xmlns:cc="http://web.resource.org/cc/" xmlns:rdf="http://www.w3.org/1999/02/22-rdf-syntax-ns#" xml:space="preserve" width="16px" height="17px" style="shape-rendering:geometricPrecision; text-rendering:geometricPrecision; image-rendering:optimizeQuality; fill-rule:evenodd; clip-rule:evenodd" viewBox="0 0 8487 8487">
 <g>
  <path d="M4532 1379l0 229c516,56 987,260 1370,568l171 -171c65,-138 172,-289 311,-430 327,-330 711,-481 857,-336 146,145 -1,530 -328,860 -144,146 -300,256 -441,322l-162 162c308,384 512,855 568,1370l241 0c144,-52 326,-83 524,-84 465,-2 842,163 843,368 1,206 -375,374 -840,376 -205,1 -393,-31 -539,-84l-229 0c-56,516 -260,987 -568,1370l171 171c138,65 289,172 430,311 330,327 481,711 336,857 -145,146 -530,-1 -860,-328 -146,-144 -256,-300 -322,-441l-162 -162c-384,308 -855,512 -1370,568l0 241c52,144 83,326 84,524 2,465 -163,842 -368,843 -206,1 -374,-375 -376,-840 -1,-205 31,-393 84,-539l0 -229c-516,-56 -987,-260 -1370,-568l-171 171c-65,138 -172,289 -311,430 -327,330 -711,481 -857,336 -146,-145 1,-530 328,-860 144,-146 300,-256 441,-322l162 -162c-308,-384 -512,-855 -568,-1370l-241 0c-144,52 -326,83 -524,84 -465,2 -842,-163 -843,-368 -1,-206 375,-374 840,-376 205,-1 393,31 539,84l229 0c56,-516 260,-987 568,-1370l-171 -171c-138,-65 -289,-172 -430,-311 -330,-327 -481,-711 -336,-857 145,-146 530,1 860,328 146,144 256,300 322,441l162 162c384,-308 855,-512 1370,-568l0 -241c-52,-144 -83,-326 -84,-524 -2,-465 163,-842 368,-843 206,-1 374,375 376,840 1,205 -31,393 -84,539zm-289 359c1384,0 2506,1122 2506,2506 0,1384 -1122,2506 -2506,2506 -1384,0 -2506,-1122 -2506,-2506 0,-1384 1122,-2506 2506,-2506zm0 94c1332,0 2412,1080 2412,2412 0,1332 -1080,2412 -2412,2412 -1332,0 -2412,-1080 -2412,-2412 0,-1332 1080,-2412 2412,-2412zm289 543l0 903c67,20 131,46 191,79l638 -638c-240,-176 -522,-297 -829,-344zm1237 752l-638 638c33,60 59,124 79,191l903 0c-47,-307 -168,-589 -344,-829zm344 1406l-903 0c-20,67 -46,131 -79,191l638 638c176,-240 297,-522 344,-829zm-752 1237l-638 -638c-60,33 -124,59 -191,79l0 903c307,-47 589,-168 829,-344zm-1406 344l0 -903c-67,-20 -131,-46 -191,-79l-638 638c240,176 522,297 829,344zm-1237 -752l638 -638c-33,-60 -59,-124 -79,-191l-903 0c47,307 168,589 344,829zm-344 -1406l903 0c20,-67 46,-131 79,-191l-638 -638c-176,240 -297,522 -344,829zm752 -1237l638 638c60,-33 124,-59 191,-79l0 -903c-307,47 -589,168 -829,344zm1117 760c423,0 766,343 766,766 0,423 -343,766 -766,766 -423,0 -766,-343 -766,-766 0,-423 343,-766 766,-766zm0 115c360,0 652,292 652,652 0,360 -292,652 -652,652 -360,0 -652,-292 -652,-652 0,-360 292,-652 652,-652z" fill="#DFAF8F"/>
 </g>
</svg>
