<?xml version="1.0" encoding="utf-8"?>
<!DOCTYPE svg PUBLIC "-//W3C//DTD SVG 1.1//EN" "http://www.w3.org/Graphics/SVG/1.1/DTD/svg11.dtd">
<svg version="1.1" id="Layer_1" xmlns="http://www.w3.org/2000/svg" xmlns:xlink="http://www.w3.org/1999/xlink" x="0px" y="0px"
	 width="16px" height="17px" viewBox="0 0 50 54.139" enable-background="new 0 0 50 54.139" xml:space="preserve">
<g transform="translate(4, 0) scale(1, 0.9)">
	<path fill="#7fffd4" d="M0,11.546c0-3.323,1.178-6.078,3.533-8.266C5.889,1.095,8.895,0,12.551,0c3.598,0,6.568,1.095,8.909,3.281
		c2.341,2.188,3.512,4.942,3.512,8.266c0,3.322-1.17,6.07-3.512,8.246c-2.343,2.171-5.312,3.258-8.909,3.258
		c-3.655,0-6.662-1.087-9.018-3.258C1.178,17.616,0,14.869,0,11.546z M30.856,19.031c0.201-0.086,0.412-0.15,0.631-0.192
		c0.217-0.042,0.413-0.064,0.588-0.064c0.724,0,1.312,0.216,1.761,0.643c0.451,0.428,0.675,0.998,0.675,1.711
		c0,0.487-0.169,0.95-0.501,1.392c-0.333,0.443-0.761,0.765-1.283,0.964L4.02,34.981c-0.229,0.086-0.435,0.149-0.622,0.192
		c-0.186,0.041-0.362,0.064-0.535,0.064c-0.684,0-1.247-0.229-1.689-0.685s-0.661-1.027-0.661-1.714c0-0.484,0.164-0.94,0.492-1.37
		c0.328-0.426,0.749-0.758,1.262-0.985L30.856,19.031z M5.346,11.546c0,1.923,0.652,3.487,1.955,4.692
		c1.304,1.207,3.033,1.809,5.187,1.809c2.152,0,3.882-0.595,5.185-1.786c1.302-1.19,1.956-2.763,1.956-4.713
		c0-1.979-0.652-3.565-1.956-4.755c-1.303-1.194-3.033-1.79-5.185-1.79c-2.154,0-3.883,0.602-5.187,1.808
		C5.998,8.018,5.346,9.595,5.346,11.546z M9.964,42.593c0-3.336,1.176-6.087,3.528-8.254c2.352-2.165,5.354-3.248,9.003-3.248
		c3.592,0,6.564,1.083,8.917,3.248c2.352,2.167,3.528,4.918,3.528,8.254s-1.169,6.094-3.507,8.274
		c-2.337,2.182-5.317,3.271-8.936,3.271c-3.621,0-6.614-1.09-8.98-3.271C11.149,48.687,9.964,45.929,9.964,42.593z M15.31,42.593
		c0,1.938,0.659,3.514,1.976,4.726c1.318,1.211,3.04,1.817,5.166,1.817c2.152,0,3.882-0.606,5.185-1.817
		c1.303-1.212,1.957-2.785,1.957-4.726c0-1.967-0.652-3.542-1.957-4.726c-1.304-1.183-3.033-1.774-5.185-1.774
		c-2.126,0-3.847,0.599-5.166,1.796C15.969,39.086,15.31,40.655,15.31,42.593z"/>
</g>
</svg>
